HIERARCHY
ROOT Hips
{
    OFFSET 0.000000 0.000000 0.000000
    CHANNELS 6 Xposition Yposition Zposition Zrotation Xrotation Yrotation
    JOINT Spine
    {
        OFFSET -0.000000 15.010053 0.000000
        CHANNELS 3 Zrotation Xrotation Yrotation
        JOINT Spine1
        {
            OFFSET -0.000000 35.592098 0.000000
            CHANNELS 3 Zrotation Xrotation Yrotation
            JOINT Neck
            {
                OFFSET -0.000000 35.445930 3.222357
                CHANNELS 3 Zrotation Xrotation Yrotation
                JOINT Head
                {
                    OFFSET -0.000000 25.626919 -3.660988
                    CHANNELS 3 Zrotation Xrotation Yrotation
                    End Site
                    {
                        OFFSET -0.000000 36.609886 0.000000
                    }
                }
            }
            JOINT LeftShoulder
            {
                OFFSET 7.265624 32.377697 -0.321253
                CHANNELS 3 Zrotation Xrotation Yrotation
                JOINT LeftArm
                {
                    OFFSET 20.776335 0.000000 0.000000
                    CHANNELS 3 Zrotation Xrotation Yrotation
                    JOINT LeftForeArm
                    {
                        OFFSET 60.928940 0.000000 0.000000
                        CHANNELS 3 Zrotation Xrotation Yrotation
                        JOINT LeftHand
                        {
                            OFFSET 49.361275 0.000000 0.000000
                            CHANNELS 3 Zrotation Xrotation Yrotation
                            End Site
                            {
                                OFFSET 27.457417 0.000000 0.000000
                            }
                        }
                    }
                }
            }
            JOINT RightShoulder
            {
                OFFSET -7.373415 32.377697 -0.321253
                CHANNELS 3 Zrotation Xrotation Yrotation
                JOINT RightArm
                {
                    OFFSET -20.776335 0.000000 0.000000
                    CHANNELS 3 Zrotation Xrotation Yrotation
                    JOINT RightForeArm
                    {
                        OFFSET -60.928940 0.000000 0.000000
                        CHANNELS 3 Zrotation Xrotation Yrotation
                        JOINT RightHand
                        {
                            OFFSET -49.361275 0.000000 0.000000
                            CHANNELS 3 Zrotation Xrotation Yrotation
                            End Site
                            {
                                OFFSET -27.457417 0.000000 0.000000
                            }
                        }
                    }
                }
            }
        }
    }
    JOINT LeftUpLeg
    {
        OFFSET 18.304943 0.000000 0.000000
        CHANNELS 3 Zrotation Xrotation Yrotation
        JOINT LeftLeg
        {
            OFFSET -0.000000 -81.854607 0.000000
            CHANNELS 3 Zrotation Xrotation Yrotation
            JOINT LeftFoot
            {
                OFFSET -0.000000 -73.554253 0.000000
                CHANNELS 3 Zrotation Xrotation Yrotation
                JOINT LeftToeBase
                {
                    OFFSET -0.000000 -11.898212 27.457417
                    CHANNELS 3 Zrotation Xrotation Yrotation
                    End Site
                    {
                        OFFSET -0.000000 0.000000 7.321977
                    }
                }
            }
        }
    }
    JOINT RightUpLeg
    {
        OFFSET -18.304943 0.000000 0.000000
        CHANNELS 3 Zrotation Xrotation Yrotation
        JOINT RightLeg
        {
            OFFSET -0.000000 -81.854607 0.000000
            CHANNELS 3 Zrotation Xrotation Yrotation
            JOINT RightFoot
            {
                OFFSET -0.000000 -73.554253 0.000000
                CHANNELS 3 Zrotation Xrotation Yrotation
                JOINT RightToeBase
                {
                    OFFSET -0.000000 -11.898212 27.457417
                    CHANNELS 3 Zrotation Xrotation Yrotation
                    End Site
                    {
                        OFFSET -0.000000 0.000000 7.321977
                    }
                }
            }
        }
    }
}
MOTION
Frames:    14
Frame Time:    0.008333
-9.361879    164.096863    -217.034195    -2.847743    -1.356707    18.231955    4.110804    -10.171025    -2.695365    -6.006278    9.424763    -0.524188    1.909021    -3.236877    -5.620591    5.261695    8.857281    -5.846882    2.240232    8.135898    -4.037325    -28.606979    30.474602    -42.894207    5.269582    -28.522999    -110.758316    23.786089    -19.941494    8.417116    -4.664598    5.384905    -4.798348    40.817852    -20.716860    69.768372    -25.070707    -11.479266    86.861931    -32.297562    5.001667    26.814392    11.777510    13.843929    2.226296    -9.596399    14.622092    -1.895581    0.243471    -27.283339    18.397449    0.000000    0.000000    0.000000    -5.335092    -34.100246    -6.684947    4.704421    26.511654    -9.241920    -0.565216    15.822748    -2.425664    0.000000    0.000000    0.000000    
-9.278187    164.024933    -216.910461    -2.852720    -1.475858    18.064466    3.691212    -10.349771    -3.197961    -5.237852    9.813853    -0.727055    2.052737    -3.497452    -5.478110    4.855718    9.292088    -5.773919    2.236506    7.672661    -4.816451    -27.984528    30.543064    -44.490036    6.979717    -28.895309    -107.602501    23.805061    -18.723736    7.435493    -4.619538    5.196003    -4.688036    41.034702    -20.373854    70.070473    -24.897217    -11.640715    87.348839    -32.034058    4.953770    26.766617    11.753905    14.101187    2.323862    -9.615891    14.538438    -1.754887    0.369977    -27.382401    18.398655    0.000000    0.000000    0.000000    -5.267212    -34.089436    -6.693889    4.720321    26.746805    -9.123742    -0.527598    15.741797    -2.394720    0.000000    0.000000    0.000000    
-9.206147    163.952042    -216.786865    -2.861121    -1.603305    17.936241    3.097982    -10.549363    -3.572574    -4.218738    10.210825    -0.909272    2.165708    -3.593606    -5.419948    4.485354    9.567984    -5.769305    2.177815    7.259170    -6.054866    -26.624252    31.209888    -46.360413    9.264904    -30.162121    -103.752853    24.113760    -18.085663    6.523213    -4.524294    5.207177    -4.724463    41.475281    -20.243589    70.536156    -24.647291    -11.553429    87.895844    -32.000149    5.041307    26.728760    11.756445    14.355863    2.454257    -9.567040    14.471962    -1.908959    0.452388    -27.500498    18.437546    0.000000    0.000000    0.000000    -5.201844    -34.072891    -6.679109    4.704900    27.012619    -8.954075    -0.392069    15.596149    -2.391205    0.000000    0.000000    0.000000    
-9.134918    163.882660    -216.658707    -2.878791    -1.752828    17.840778    2.494747    -10.614433    -4.069718    -3.248548    10.429430    -1.138034    2.471132    -3.672562    -5.275140    3.943316    9.883528    -5.718510    2.226655    6.970294    -6.919608    -25.897573    31.057606    -48.365589    11.072343    -29.881393    -99.858383    24.708220    -16.604212    5.629871    -4.370510    5.130575    -4.520905    41.646980    -20.042887    70.541878    -24.679111    -11.697263    88.464310    -32.062851    5.158965    26.744728    11.789009    14.605713    2.527000    -9.549361    14.426168    -1.953066    0.527850    -27.630350    18.440844    0.000000    0.000000    0.000000    -5.136583    -34.000057    -6.695306    4.737897    27.201580    -8.912377    -0.381412    15.486214    -2.359494    0.000000    0.000000    0.000000    
-9.063876    163.819290    -216.538666    -2.902135    -1.896736    17.788769    1.887175    -10.614202    -4.703789    -2.204928    10.602007    -1.422874    2.505991    -3.823470    -5.100890    3.632815    10.253452    -5.576110    2.155252    6.660670    -7.487871    -25.101055    30.715780    -50.578121    12.686105    -29.031807    -95.811882    25.581776    -14.929021    4.794115    -4.397879    5.049522    -4.249639    41.737904    -19.776691    70.618103    -24.718294    -11.919548    89.011909    -32.547897    5.182969    26.458084    11.836184    14.817274    2.544940    -9.551306    14.399518    -1.915456    0.619954    -27.760576    18.413309    0.000000    0.000000    0.000000    -5.088630    -33.929832    -6.737041    4.762347    27.389202    -9.054881    -0.412854    15.388030    -2.170639    0.000000    0.000000    0.000000    
-8.992961    163.755508    -216.423218    -2.921390    -2.017174    17.781294    1.205734    -10.581550    -5.354794    -1.102732    10.680502    -1.720659    2.631572    -3.978741    -4.892505    3.210326    10.712542    -5.421189    2.150447    6.502600    -7.995044    -24.365347    30.116899    -52.989620    13.790257    -27.731838    -91.750290    26.532715    -13.483628    3.869963    -4.414555    5.034546    -4.024304    42.086315    -19.511776    70.783279    -24.667225    -11.977368    89.689095    -33.273281    5.268226    26.208515    11.884376    14.966968    2.491813    -9.600243    14.414864    -1.802006    0.767716    -27.887211    18.452702    0.000000    0.000000    0.000000    -5.075992    -33.881702    -6.833253    4.764002    27.591650    -9.258100    -0.432666    15.287643    -1.918306    0.000000    0.000000    0.000000    
-8.923136    163.701584    -216.315155    -2.934238    -2.119149    17.829945    0.521853    -10.509262    -6.121369    -0.007726    10.635724    -2.057685    2.579335    -4.094435    -4.650533    3.010421    11.291294    -5.187517    2.038634    6.534381    -8.287374    -23.377174    29.168404    -55.566006    14.448424    -25.930540    -87.599167    27.415621    -12.124602    2.668476    -4.492658    5.083511    -3.587744    42.212635    -19.226664    70.785896    -24.791315    -12.240443    90.231773    -33.864204    5.288559    26.041208    11.938571    15.082453    2.361953    -9.657186    14.421880    -1.719687    0.930838    -27.998314    18.509323    0.000000    0.000000    0.000000    -5.118836    -33.828121    -6.994653    4.802437    27.743151    -9.489255    -0.514905    15.269179    -1.709163    0.000000    0.000000    0.000000    
-8.846327    163.653473    -216.210144    -2.943129    -2.206766    17.941357    -0.221029    -10.382236    -6.789033    1.190247    10.560169    -2.368864    2.665920    -4.145039    -4.450357    2.523873    11.635294    -5.025439    1.919741    6.599713    -8.602781    -22.271507    28.200916    -58.471039    15.057369    -24.045143    -83.075279    27.694208    -10.933258    1.243805    -4.566822    5.183429    -3.575592    42.518162    -18.910915    71.050331    -24.719463    -12.363625    90.850410    -34.436695    5.280667    25.871300    12.000620    15.175352    2.184447    -9.678477    14.420387    -1.797635    1.085115    -28.094442    18.615917    0.000000    0.000000    0.000000    -5.203312    -33.788872    -7.203329    4.794473    27.951538    -9.633489    -0.479740    15.158862    -1.533398    0.000000    0.000000    0.000000    
-8.764840    163.614975    -216.098404    -2.948480    -2.298530    18.115833    -0.883494    -10.224496    -7.499555    2.237305    10.392217    -2.679953    2.616346    -4.303205    -4.235736    2.365335    12.304331    -4.817067    1.814870    6.855145    -8.865911    -21.151644    26.949221    -61.394344    15.175730    -21.911110    -78.562531    27.257946    -9.929963    -0.201587    -4.600180    5.153075    -3.255660    42.716087    -18.620712    70.950722    -24.557230    -12.566874    91.596024    -34.778400    5.256776    25.559851    12.085170    15.276001    1.969840    -9.736017    14.377240    -1.758056    1.220979    -28.165941    18.646215    0.000000    0.000000    0.000000    -5.331916    -33.741169    -7.366744    4.851801    28.175146    -9.828059    -0.440784    15.040514    -1.447525    0.000000    0.000000    0.000000    
-8.696097    163.583481    -215.992065    -2.968943    -2.370334    18.331997    -1.452823    -10.047726    -8.186979    3.106833    10.146000    -2.965862    2.827205    -4.398200    -3.960548    1.913060    12.875095    -4.597977    1.787055    7.215444    -9.130969    -20.016205    25.497833    -64.340790    14.804621    -19.521404    -74.008232    27.024492    -9.047843    -1.790360    -4.549760    5.368644    -3.194895    42.745914    -18.201057    71.127525    -24.596611    -13.055663    92.019020    -34.859776    5.045152    25.368040    12.202842    15.339898    1.760293    -9.716096    14.351495    -1.969056    1.232454    -28.239550    18.655298    0.000000    0.000000    0.000000    -5.477483    -33.705517    -7.538249    4.944030    28.382652    -10.020663    -0.417497    14.925215    -1.426802    0.000000    0.000000    0.000000    
-8.639499    163.558609    -215.855988    -2.973266    -2.466500    18.622055    -2.065788    -9.835640    -8.862873    4.011430    9.899062    -3.246543    2.688764    -4.442986    -3.793497    1.969944    13.400064    -4.406702    1.739584    7.597709    -9.449867    -19.070610    23.832664    -67.136673    13.975101    -16.882851    -69.559868    26.381165    -8.014481    -2.920567    -4.525217    5.414407    -3.044832    43.095795    -17.928686    71.115311    -24.304949    -13.234203    92.751839    -34.623726    4.956885    25.299803    12.352647    15.420189    1.504099    -9.778887    14.301763    -1.817713    1.202024    -28.269480    18.462591    0.000000    0.000000    0.000000    -5.646285    -33.615242    -7.721413    5.031409    28.585752    -10.215208    -0.353024    14.758799    -1.453022    0.000000    0.000000    0.000000    
-8.617486    163.524460    -215.715927    -3.008271    -2.538526    18.950657    -2.669278    -9.596864    -9.480082    4.900644    9.561079    -3.500075    2.815506    -4.517917    -3.596949    1.701999    13.957279    -4.243119    1.734455    8.074101    -9.828200    -18.547163    21.882717    -69.786537    12.353516    -13.906437    -65.317291    25.936853    -6.954206    -3.850317    -4.488937    5.496200    -2.974433    43.418217    -17.617617    70.944969    -24.038887    -13.524453    93.583153    -34.434048    4.844112    25.143785    12.569581    15.437057    1.318329    -9.807925    14.316304    -1.952449    1.161834    -28.341738    18.319138    0.000000    0.000000    0.000000    -5.794603    -33.540798    -7.926205    5.123811    28.768671    -10.400549    -0.321457    14.560890    -1.499945    0.000000    0.000000    0.000000    
-8.568180    163.519577    -215.574219    -2.988329    -2.645995    19.263126    -3.217766    -9.359669    -9.822475    5.699517    9.318554    -3.656568    2.924184    -4.681479    -3.516197    1.491286    14.439449    -4.194634    1.804556    8.432376    -10.538377    -18.093147    19.936768    -72.269646    10.141094    -11.151103    -61.194111    25.372963    -6.231594    -4.611531    -4.402378    5.536530    -3.344990    43.754772    -17.202473    70.951370    -23.840515    -13.820232    94.318863    -34.182976    4.786480    24.940861    12.719148    15.512500    1.151341    -9.823701    14.311742    -2.080278    1.121018    -28.333252    18.214891    0.000000    0.000000    0.000000    -5.945901    -33.409527    -8.106757    5.164990    28.936729    -10.552299    -0.291039    14.390049    -1.554749    0.000000    0.000000    0.000000    
-8.529094    163.522949    -215.400558    -2.957878    -2.749897    19.625631    -3.879645    -8.937331    -10.449911    6.585041    8.810982    -3.896250    3.021705    -4.894670    -3.206415    1.439646    15.162254    -3.906543    1.938147    8.982213    -10.749405    -18.388348    17.726082    -74.648804    6.948479    -8.084951    -57.304638    24.577703    -5.526979    -5.621199    -4.361201    5.643384    -3.236170    43.985394    -16.899912    70.775002    -23.608316    -14.103728    95.076088    -34.136116    4.614510    24.878315    12.879908    15.568990    0.960558    -9.848639    14.321455    -2.157701    1.054150    -28.297224    18.095490    0.000000    0.000000    0.000000    -6.112472    -33.251301    -8.316153    5.180500    29.099085    -10.677093    -0.220194    14.165896    -1.621562    0.000000    0.000000    0.000000    
